<?xml version="1.0" standalone="no"?>
<!DOCTYPE svg PUBLIC "-//W3C//DTD SVG 20010904//EN"
 "http://www.w3.org/TR/2001/REC-SVG-20010904/DTD/svg10.dtd">
<svg version="1.0" xmlns="http://www.w3.org/2000/svg"
 width="1024.000000pt" height="1024.000000pt" viewBox="0 0 1024.000000 1024.000000"
 preserveAspectRatio="xMidYMid meet">
<metadata>
Created by potrace 1.11, written by Peter Selinger 2001-2013
</metadata>
<g transform="translate(0.000000,1024.000000) scale(0.100000,-0.100000)"
fill="#000000" stroke="none">
<path d="M1265 8869 c-125 -18 -251 -105 -318 -219 -61 -105 -57 136 -57
-3291 l0 -3126 65 -92 c203 -287 500 -617 768 -854 l99 -87 619 0 619 0 2
-387 3 -386 155 -62 c85 -35 158 -61 163 -58 4 2 7 204 7 449 l0 444 785 0
785 0 0 -600 0 -600 160 0 160 0 0 600 0 600 785 0 785 0 0 -444 c0 -245 3
-447 8 -450 4 -2 77 24 162 58 l155 62 3 387 2 387 618 0 617 0 60 51 c278
238 590 579 801 878 l74 104 0 3132 c0 3092 0 3134 -20 3197 -51 164 -191 282
-365 308 -88 12 -7612 12 -7700 -1z m840 -474 c88 -23 167 -70 233 -139 124
-129 168 -290 127 -465 -56 -238 -307 -409 -545 -372 -129 20 -212 63 -297
154 -92 98 -134 200 -136 327 -1 147 46 263 148 365 123 123 304 173 470 130z
m1563 0 c93 -22 159 -60 233 -134 156 -157 192 -379 93 -577 -105 -210 -367
-318 -594 -245 -227 72 -375 307 -341 539 43 295 321 485 609 417z m1572 -1
c78 -17 166 -66 228 -127 268 -261 157 -720 -201 -829 -233 -70 -482 35 -590
250 -190 381 144 802 563 706z m1569 1 c187 -44 338 -210 371 -406 55 -325
-232 -615 -562 -569 -235 33 -428 252 -428 488 0 323 303 561 619 487z m1553
4 c225 -47 389 -250 390 -484 1 -135 -40 -241 -131 -339 -198 -211 -516 -216
-716 -12 -197 201 -193 510 9 704 124 119 282 165 448 131z m-5302 -2284 l0
-785 -785 0 -785 0 0 785 0 785 785 0 785 0 0 -785z m1900 0 l0 -785 -785 0
-785 0 0 785 0 785 785 0 785 0 0 -785z m1890 0 l0 -785 -785 0 -785 0 0 785
0 785 785 0 785 0 0 -785z m1900 0 l0 -785 -785 0 -785 0 0 785 0 785 785 0
785 0 0 -785z m-5690 -1900 l0 -785 -785 0 -785 0 0 785 0 785 785 0 785 0 0
-785z m1900 0 l0 -785 -785 0 -785 0 0 785 0 785 785 0 785 0 0 -785z m1890 0
l0 -785 -785 0 -785 0 0 785 0 785 785 0 785 0 0 -785z m1900 0 l0 -785 -785
0 -785 0 0 785 0 785 785 0 785 0 0 -785z m-5690 -1900 l0 -785 -785 0 -785 0
0 785 0 785 785 0 785 0 0 -785z m1900 0 l0 -785 -785 0 -785 0 0 785 0 785
785 0 785 0 0 -785z m1890 0 l0 -785 -785 0 -785 0 0 785 0 785 785 0 785 0 0
-785z m1900 0 l0 -785 -785 0 -785 0 0 785 0 785 785 0 785 0 0 -785z"/>
</g>
</svg>
